<svg width="113" height="30" viewBox="0 0 113 30" fill="none" xmlns="http://www.w3.org/2000/svg">
<path d="M26.3179 1.24657H31.3016V28.7533H25.8495V12.315V11.4319L25.392 12.1873L17.2175 25.6848H14.4285L6.44538 12.1895L5.98658 11.4139V12.315V28.7533H0.342766V1.24657H5.32643L15.6107 18.3871L15.8222 18.7395L16.0336 18.3871L26.3179 1.24657Z" fill="#010101" stroke="#010101" stroke-width="0.493149"/>
<path d="M39.3561 19.6027V19.8492H39.6027H53.3561V28.7533H32.7534V13.3886L47.0821 1.32236L61.4108 13.3886V28.7533H54.9999V14.4246V14.3038L54.9044 14.2297L47.2332 8.28453L47.0802 8.16598L46.9287 8.2864L39.4493 14.2316L39.3561 14.3056V14.4246V19.6027Z" fill="#010101" stroke="#010101" stroke-width="0.493149"/>
<mask id="path-3-inside-1_180_2022" fill="white">
<path fill-rule="evenodd" clip-rule="evenodd" d="M62.4248 28.9999V1H76.233C87.7398 1 89.4658 15.1917 81.0275 20.178L87.7398 28.9999H80.0686L74.6987 21.3287H68.9453V28.9999H62.4248ZM76.2327 15.9588H68.9451V6.36982H76.2327C81.6026 6.36982 81.6026 15.9588 76.2327 15.9588Z"/>
</mask>
<path fill-rule="evenodd" clip-rule="evenodd" d="M62.4248 28.9999V1H76.233C87.7398 1 89.4658 15.1917 81.0275 20.178L87.7398 28.9999H80.0686L74.6987 21.3287H68.9453V28.9999H62.4248ZM76.2327 15.9588H68.9451V6.36982H76.2327C81.6026 6.36982 81.6026 15.9588 76.2327 15.9588Z" fill="#010101"/>
<path d="M62.4248 1V0.506851H61.9317V1H62.4248ZM62.4248 28.9999H61.9317V29.4931H62.4248V28.9999ZM81.0275 20.178L80.7766 19.7535L80.2993 20.0355L80.635 20.4766L81.0275 20.178ZM87.7398 28.9999V29.4931H88.7347L88.1322 28.7013L87.7398 28.9999ZM80.0686 28.9999L79.6646 29.2827L79.8118 29.4931H80.0686V28.9999ZM74.6987 21.3287L75.1027 21.0459L74.9555 20.8355H74.6987V21.3287ZM68.9453 21.3287V20.8355H68.4522V21.3287H68.9453ZM68.9453 28.9999V29.4931H69.4385V28.9999H68.9453ZM68.9451 15.9588H68.4519V16.452H68.9451V15.9588ZM68.9451 6.36982V5.87667H68.4519V6.36982H68.9451ZM61.9317 1V28.9999H62.918V1H61.9317ZM76.233 0.506851H62.4248V1.49315H76.233V0.506851ZM81.2784 20.6026C85.6963 17.992 87.4444 12.9783 86.5936 8.62458C85.7364 4.23724 82.2376 0.506851 76.233 0.506851V1.49315C81.7351 1.49315 84.8528 4.85863 85.6257 8.81372C86.4051 12.8025 84.797 17.3777 80.7766 19.7535L81.2784 20.6026ZM88.1322 28.7013L81.4199 19.8794L80.635 20.4766L87.3473 29.2985L88.1322 28.7013ZM80.0686 29.4931H87.7398V28.5068H80.0686V29.4931ZM74.2947 21.6115L79.6646 29.2827L80.4726 28.7171L75.1027 21.0459L74.2947 21.6115ZM68.9453 21.8218H74.6987V20.8355H68.9453V21.8218ZM69.4385 28.9999V21.3287H68.4522V28.9999H69.4385ZM62.4248 29.4931H68.9453V28.5068H62.4248V29.4931ZM68.9451 16.452H76.2327V15.4657H68.9451V16.452ZM68.4519 6.36982V15.9588H69.4382V6.36982H68.4519ZM76.2327 5.87667H68.9451V6.86297H76.2327V5.87667ZM76.2327 16.452C77.742 16.452 78.891 15.77 79.6484 14.7556C80.3953 13.7553 80.7533 12.4472 80.7533 11.1643C80.7533 9.88142 80.3953 8.57336 79.6484 7.57306C78.891 6.55866 77.742 5.87667 76.2327 5.87667V6.86297C77.4084 6.86297 78.2731 7.3796 78.8581 8.16315C79.4537 8.96078 79.767 10.05 79.767 11.1643C79.767 12.2787 79.4537 13.3679 78.8581 14.1655C78.2731 14.949 77.4084 15.4657 76.2327 15.4657V16.452Z" fill="#010101" mask="url(#path-3-inside-1_180_2022)"/>
<path d="M111.52 23.6301L107.301 19.9863C100.589 27.2738 91.5752 22.2876 91.5752 15.1918C91.5752 8.09589 100.972 3.30139 107.301 10.2055L111.904 6.36987C109.027 3.3013 105.959 1.00012 100.014 1.00012C81.2191 1.00012 81.0273 29 100.014 29C105.192 29 108.644 26.8903 111.52 23.6301Z" fill="#010101" stroke="#010101" stroke-width="0.493149"/>
</svg>
