<svg width="1412" height="234" viewBox="0 0 1412 234" fill="none" xmlns="http://www.w3.org/2000/svg">
<path opacity="0.25" d="M-4.27809 341.296C287.082 248.09 386.508 145.301 422.541 67.3231C462.751 -19.7038 442.014 -114.82 485.421 -120.727C513.216 -124.511 547.416 -88.9932 611.178 -11.1345C804.536 224.962 808.914 287.661 891.294 303.934C1006.7 326.746 1077.84 219.424 1255.23 221.738C1385.51 223.441 1490.94 283.196 1562 336.312M-11.2771 331.926C271.879 240.727 377.016 140.813 415.906 67.7316C459.366 -13.9391 438.841 -104.142 481.797 -108.408C509.413 -111.153 542.971 -76.2431 604.561 -1.05254C791.74 227.417 797.546 290.896 879.292 306.366C995.365 328.023 1063.4 212.938 1242.67 211.371C1246.58 211.337 1250.43 211.337 1254.28 211.405C1381.48 213.719 1488.41 273.502 1560.99 326.292M-18.2517 322.557C256.679 233.372 367.444 136.505 409.292 68.1463C455.935 -8.04912 435.701 -93.4524 478.192 -96.0837C505.639 -97.7867 538.558 -63.4812 597.96 9.03836C778.919 229.87 786.12 294.334 867.323 308.799C983.96 329.576 1049.04 206.396 1230.15 201.003C1234.13 200.884 1238.09 200.764 1242.05 200.779C1371.35 201.244 1483.83 262.262 1560 316.269M-25.2396 313.187C241.505 225.992 357.725 132.403 402.669 68.5606C452.365 -2.03448 432.57 -82.7543 474.574 -83.7563C501.865 -84.4092 534.106 -50.7224 591.35 19.1262C766.112 232.345 774.737 297.658 855.345 311.231C972.603 330.975 1034.68 199.805 1217.62 190.634C1221.68 190.43 1225.74 190.234 1229.78 190.149C1361.17 187.407 1479.23 251.019 1558.97 306.241M-32.2275 303.817C226.313 218.638 347.81 128.52 396.042 68.9753C448.591 4.10252 429.456 -72.0446 470.961 -71.4287C498.099 -71.0284 529.672 -37.9605 584.744 29.2171C753.305 234.809 763.358 300.973 843.367 313.661C961.281 332.361 1020.35 193.166 1205.09 180.254C1209.24 179.97 1213.39 179.686 1217.56 179.51C1351.03 174.282 1474.66 239.771 1558 296.219M-39.2155 294.447C211.126 211.281 337.643 124.872 389.427 69.3921C444.53 10.3523 426.342 -61.3271 467.356 -59.1046C494.351 -57.64 525.242 -25.2021 578.143 39.3073C740.51 237.272 751.997 304.277 831.398 316.093C949.959 333.734 1006.03 186.481 1192.57 169.893C1196.81 169.516 1201.05 169.132 1205.33 168.888C1340.88 161.196 1470.1 228.535 1557.01 286.204M-46.199 285.078C195.934 203.915 327.146 121.458 382.796 69.8068C440.048 16.6653 423.254 -50.5946 463.734 -46.7769C490.595 -44.245 520.799 -12.4316 571.524 49.3955C727.694 239.733 740.627 307.572 819.412 318.523C938.646 335.097 991.69 179.757 1180.04 159.525C1184.38 159.059 1188.7 158.582 1193.06 158.261C1330.69 148.122 1465.5 217.301 1555.99 276.182M-53.1847 275.708C180.745 196.552 303.366 109.943 376.175 70.2214C420.272 16.5548 420.164 -39.848 460.122 -34.4521C486.849 -30.8416 516.367 0.318897 564.921 59.5006C714.889 242.212 729.268 310.871 807.436 320.97C927.339 336.46 977.36 173.007 1167.5 149.17C1171.93 148.617 1176.35 148.049 1180.83 147.646C1320.53 135.086 1460.94 206.067 1555.01 266.174M-60.1726 266.338C165.558 189.189 291.493 104.887 369.552 70.6357C414.205 21.7348 417.071 -29.0876 456.509 -22.1249C483.105 -17.4301 511.929 13.0719 558.311 69.577C702.06 244.661 717.916 314.132 795.463 323.388C916.038 337.779 963.024 166.192 1154.98 138.787C1159.48 138.143 1164 137.484 1168.59 137.001C1310.37 122.04 1456.35 194.812 1554.01 256.137M-67.1583 256.969C150.368 181.826 279.617 99.8377 362.926 71.0501C408.136 26.9122 413.981 -18.3157 452.898 -9.80033C479.359 -4.01273 507.497 25.8336 551.703 79.6648C689.277 247.133 706.57 317.394 783.487 325.815C904.749 339.096 948.677 159.357 1142.45 128.412C1147.04 127.68 1151.65 126.934 1156.35 126.369C1300.21 109.02 1451.77 183.566 1553.01 246.112M-74.144 247.599C135.183 174.463 267.741 94.7852 356.301 71.4673C402.066 32.0952 410.882 -7.52675 449.278 2.52704C475.604 9.4188 503.06 38.5981 545.095 89.7469C676.467 249.58 695.224 320.641 771.507 328.242C893.455 340.394 934.317 152.488 1129.92 118.038C1134.6 117.212 1139.31 116.383 1144.1 115.733C1290.06 96.0142 1447.18 172.32 1552.01 236.083M-81.1319 238.226C119.983 167.103 255.876 89.7325 349.682 71.8928C396.003 37.2864 407.781 3.27895 445.66 14.8655C471.843 22.8699 498.621 51.368 538.48 99.8572C663.655 252.063 683.876 323.902 759.533 330.691C882.176 341.702 919.946 145.624 1117.39 107.689C1122.16 106.772 1126.94 105.855 1131.85 105.134C1279.91 83.0565 1442.6 161.105 1551.01 226.089M-88.1198 228.856C104.795 159.74 243.985 84.68 343.055 72.2958C389.932 42.4552 404.659 14.0764 442.051 27.1786C468.082 36.3014 494.187 64.1182 531.875 109.937C650.87 254.516 672.541 327.123 747.551 333.113C870.889 342.959 905.55 138.693 1104.86 97.3082C1109.72 96.2978 1114.61 95.2986 1119.62 94.484C1269.78 70.0733 1438.03 149.834 1550.03 216.049M-95.0945 219.486C89.6041 152.377 232.107 79.6303 336.432 72.7159C383.861 47.641 401.527 24.8908 438.438 39.506C464.313 49.7528 489.753 76.877 525.269 120.024C638.05 256.98 661.201 330.353 735.573 335.545C859.615 344.214 891.14 131.744 1092.32 86.9393C1097.27 85.8352 1102.26 84.7509 1107.37 83.8539C1259.63 57.1044 1433.44 138.602 1549.04 206.027M-102.089 210.117C74.4145 145.014 220.236 74.5782 329.811 73.1278C377.795 52.8187 398.389 35.7085 434.826 51.8394C460.532 63.2131 485.321 89.6419 518.644 130.121C625.227 259.449 649.847 333.564 723.58 337.981C848.321 345.454 876.697 124.813 1079.78 76.5737C1084.82 75.3787 1089.9 74.2121 1095.11 73.23C1249.49 44.1586 1428.84 127.368 1548 196.01M-109.077 200.748C59.2229 137.652 208.358 69.526 323.183 73.5424C371.728 57.999 395.232 46.5317 431.213 64.1585C456.74 76.6647 480.882 102.398 512.055 140.206C612.437 261.905 638.525 336.76 711.624 340.408C837.064 346.667 862.27 117.828 1067.27 66.2135C1072.39 64.9249 1077.57 63.6759 1082.9 62.6115C1239.39 31.2126 1424.27 116.119 1547.02 185.971M-116.065 191.378C44.0356 130.292 196.48 64.4851 316.56 73.957C365.635 63.1709 392.061 57.3606 427.599 76.486C452.936 90.1248 476.448 115.157 505.445 150.286C599.63 264.357 627.185 339.943 699.646 342.826C825.785 347.85 847.804 110.828 1054.74 55.8193C1059.95 54.4341 1065.22 53.1057 1070.64 51.9561C1229.28 18.2808 1419.71 104.879 1546.02 175.96M-123.053 181.996C28.844 122.917 184.602 59.4122 309.933 74.3623C359.585 68.3476 388.878 68.1744 423.977 88.7986C449.122 103.559 472.009 127.904 498.831 160.373C586.818 266.815 615.841 343.124 687.664 345.258C814.507 349.039 833.32 103.837 1042.21 45.4668C1047.5 43.9852 1052.87 42.5773 1058.39 41.3426C1219.18 5.35954 1415.11 93.641 1545.02 165.951M-130.036 172.63C13.6524 115.577 171.078 90.0108 303.314 74.7882C352.797 69.0914 385.69 79.0146 420.368 101.137C445.309 117.033 467.579 140.677 492.23 170.475C574.015 269.296 604.502 346.309 675.69 347.702C803.224 350.197 818.819 96.8202 1029.68 35.0896C1035.06 33.5171 1040.54 32.0269 1046.15 30.707C1209.09 -7.5638 1410.52 82.3952 1544.03 155.914M-137.024 163.263C-1.52617 108.197 157.858 57.3088 296.691 75.1967C346.773 81.6514 382.485 89.8346 416.754 113.459C441.483 130.49 463.141 153.43 485.62 180.56C561.212 271.754 593.154 349.465 663.713 350.126C791.932 351.33 804.296 89.7892 1017.15 24.7149C1022.61 23.0459 1028.19 21.4847 1033.9 20.074C1199.12 -20.2632 1405.95 71.152 1543.04 145.891M-144.014 153.896C-16.7287 100.837 147.05 48.2372 290.066 75.6141C340.795 85.3273 379.269 100.663 413.139 125.787C437.646 143.953 458.704 166.195 479.007 190.651C548.402 274.22 581.803 352.82 651.732 352.562C780.634 352.085 789.602 82.5569 1004.61 14.349C1010.16 12.5778 1015.84 10.9438 1021.65 9.44698C1188.99 -33.2745 1401.36 59.9089 1542.03 135.866M-151 144.529C-31.9181 93.4794 137.094 39.2224 283.44 76.0342C504.059 131.537 523.146 356.3 639.761 354.994C772.697 353.507 775.415 61.104 1009.41 -1.18014C1178.87 -46.2831 1396.8 48.6687 1541.03 125.849" stroke="url(#paint0_linear_130_1283)" stroke-width="2" stroke-miterlimit="10"/>
<defs>
<linearGradient id="paint0_linear_130_1283" x1="0.999997" y1="2" x2="1562" y2="233" gradientUnits="userSpaceOnUse">
<stop stop-color="#FA835E"/>
<stop offset="1" stop-color="white"/>
</linearGradient>
</defs>
</svg>
