<svg width="359" height="17" viewBox="0 0 359 17" fill="none" xmlns="http://www.w3.org/2000/svg">
<g opacity="0.25">
<path d="M2.75015 9.47478C1.71026 9.47478 0.846952 8.92341 0.78809 8.21261C0.729229 7.48187 1.56313 6.85742 2.65207 6.81757C111.556 3.15725 222.049 0.865422 331.08 0.00182703C332.169 -0.0380312 333.052 0.579758 333.062 1.31713C333.072 2.04787 332.209 2.6524 331.12 2.65904C222.137 3.52264 111.693 5.81447 2.83852 9.47478C2.80909 9.47478 2.76976 9.47478 2.74033 9.47478H2.75015Z" fill="#FF6F42"/>
<path d="M15.0226 16.4633C13.9925 16.4633 13.1292 15.9185 13.0606 15.2144C13.0017 14.4836 13.8258 13.8525 14.9049 13.8127C128.341 9.30869 243.465 7.76087 357.078 9.20905C358.157 9.22234 359.02 9.82686 359 10.5642C358.981 11.2883 358.108 11.8663 357.038 11.8663C357.028 11.8663 357.009 11.8663 356.999 11.8663C243.484 10.4181 128.459 11.9659 15.1305 16.4699C15.0913 16.4699 15.052 16.4699 15.0128 16.4699L15.0226 16.4633Z" fill="#FF6F42"/>
</g>
</svg>
