<svg width="359" height="17" viewBox="0 0 359 17" fill="none" xmlns="http://www.w3.org/2000/svg">
<g opacity="0.25">
<path d="M2.35726 9.47478C1.31737 9.47478 0.454069 8.92341 0.395207 8.21261C0.336345 7.48187 1.17024 6.85742 2.25918 6.81757C111.163 3.15725 221.656 0.865422 330.688 0.00182703C331.777 -0.0380312 332.659 0.579758 332.669 1.31713C332.679 2.04787 331.816 2.6524 330.727 2.65904C221.745 3.52264 111.3 5.81447 2.44564 9.47478C2.41621 9.47478 2.37687 9.47478 2.34744 9.47478H2.35726Z" fill="#FF6F42"/>
<path d="M14.6297 16.4633C13.5997 16.4633 12.7363 15.9185 12.6677 15.2144C12.6088 14.4836 13.4329 13.8525 14.512 13.8127C127.948 9.30869 243.072 7.76087 356.685 9.20905C357.764 9.22234 358.627 9.82686 358.607 10.5642C358.588 11.2883 357.715 11.8663 356.645 11.8663C356.636 11.8663 356.616 11.8663 356.606 11.8663C243.091 10.4181 128.066 11.9659 14.7376 16.4699C14.6984 16.4699 14.6592 16.4699 14.6199 16.4699L14.6297 16.4633Z" fill="#FF6F42"/>
</g>
</svg>
