<svg width="1495" height="930" viewBox="0 0 1495 930" fill="none" xmlns="http://www.w3.org/2000/svg">
<path d="M-17.5293 2.03548e-05L-17.5293 929M1.85532 0L1.85528 929M21.2399 0L21.2399 929M40.6245 0L40.6245 929M60.0092 0L60.0091 929M79.3938 0L79.3937 929M98.7784 0L98.7784 929M118.163 0L118.163 929M137.548 0L137.548 929M156.932 0L156.932 929M176.317 0L176.317 929M195.701 0L195.701 929M215.086 0L215.086 929M234.471 0L234.471 929M253.855 0L253.855 929M273.24 0L273.24 929M292.625 0L292.625 929M312.009 0L312.009 929M331.394 0L331.394 929M350.778 0L350.778 929M370.163 0L370.163 929M389.548 0L389.548 929M408.932 0L408.932 929M428.317 0L428.317 929M447.701 0L447.701 929M467.086 0L467.086 929M486.471 0L486.471 929M505.855 0L505.855 929M525.24 0L525.24 929M544.625 0L544.625 929M564.009 0L564.009 929M583.394 0L583.394 929M602.778 0L602.778 929M622.163 0L622.163 929M641.548 0L641.548 929M660.932 0L660.932 929M680.317 0L680.317 929M699.701 0L699.701 929M719.086 0L719.086 929M738.471 0L738.471 929M757.855 0L757.855 929M777.24 0L777.24 929M796.625 0L796.625 929M816.009 0L816.009 929M835.394 0L835.394 929M854.778 0L854.778 929M874.163 0L874.163 929M893.548 0L893.548 929M912.932 0L912.932 929M932.317 0L932.317 929M951.701 0L951.701 929M971.086 0L971.086 929M990.471 0L990.471 929M1009.86 0V929M1029.24 0V929M1048.62 0V929M1068.01 0V929M1087.39 0V929M1106.78 0V929M1126.16 0V929M1145.55 0V929M1164.93 0V929M1184.32 0V929M1203.7 0V929M1223.09 0V929M1242.47 0V929M1261.86 0V929M1281.24 0V929M1300.62 0V929M1320.01 0V929M1339.39 0V929M1358.78 0V929M1378.16 0V929M1397.55 0V929M1416.93 0V929M1436.32 0V929M1455.7 0V929M1475.09 0V929M1494.47 0V929M1493.97 0.500122L-18.0293 0.500041M1493.97 20.6958L-18.0293 20.6957M1493.97 40.8915L-18.0293 40.8914M1493.97 61.087L-18.0293 61.087M1493.97 81.2827L-18.0293 81.2826M1493.97 101.478L-18.0293 101.478M1493.97 121.674L-18.0293 121.674M1493.97 141.87L-18.0293 141.87M1493.97 162.065L-18.0293 162.065M1493.97 182.261L-18.0293 182.261M1493.97 202.457L-18.0293 202.457M1493.97 222.652L-18.0293 222.652M1493.97 242.848L-18.0293 242.848M1493.97 263.044L-18.0293 263.043M1493.97 283.239L-18.0293 283.239M1493.97 303.435L-18.0293 303.435M1493.97 323.63L-18.0293 323.63M1493.97 343.826L-18.0293 343.826M1493.97 364.022L-18.0293 364.022M1493.97 384.218L-18.0293 384.217M1493.97 404.413L-18.0293 404.413M1493.97 424.609L-18.0293 424.609M1493.97 444.804L-18.0293 444.804M1493.97 465L-18.0293 465M1493.97 485.196L-18.0293 485.196M1493.97 505.391L-18.0293 505.391M1493.97 525.587L-18.0293 525.587M1493.97 545.783L-18.0293 545.783M1493.97 565.978L-18.0293 565.978M1493.97 586.174L-18.0293 586.174M1493.97 606.37L-18.0293 606.37M1493.97 626.565L-18.0293 626.565M1493.97 646.761L-18.0293 646.761M1493.97 666.957L-18.0293 666.956M1493.97 687.152L-18.0293 687.152M1493.97 707.348L-18.0293 707.348M1493.97 727.543L-18.0293 727.543M1493.97 747.739L-18.0293 747.739M1493.97 767.935L-18.0293 767.935M1493.97 788.13L-18.0293 788.13M1493.97 808.326L-18.0293 808.326M1493.97 828.522L-18.0293 828.522M1493.97 848.717L-18.0293 848.717M1493.97 868.913L-18.0293 868.913M1493.97 889.109L-18.0293 889.109M1493.97 909.304L-18.0293 909.304M1493.97 929.5L-18.0293 929.5" stroke="url(#paint0_linear_180_1965)"/>
<defs>
<linearGradient id="paint0_linear_180_1965" x1="738.257" y1="0.49997" x2="738.257" y2="929" gradientUnits="userSpaceOnUse">
<stop stop-color="#E8E8E8" stop-opacity="0.5"/>
<stop offset="1" stop-color="#FEFEFE" stop-opacity="0.4"/>
</linearGradient>
</defs>
</svg>
